<mxfile host="Electron" agent="Mozilla/5.0 (Windows NT 10.0; Win64; x64) AppleWebKit/537.36 (KHTML, like Gecko) draw.io/26.0.16 Chrome/132.0.6834.196 Electron/34.2.0 Safari/537.36" version="26.0.16">
  <diagram name="Seite-1" id="RyP2TP2mbquq_PIOVLge">
    <mxGraphModel dx="713" dy="1093" grid="1" gridSize="10" guides="1" tooltips="1" connect="1" arrows="1" fold="1" page="1" pageScale="1" pageWidth="827" pageHeight="1169" math="0" shadow="0">
      <root>
        <mxCell id="0" />
        <mxCell id="1" parent="0" />
        <mxCell id="1W1-7F1AiF6YoNYNXee2-1" value="" style="edgeStyle=orthogonalEdgeStyle;rounded=0;orthogonalLoop=1;jettySize=auto;html=1;" edge="1" parent="1" source="N58Ag7LRtHY7RUleNqqV-1" target="N58Ag7LRtHY7RUleNqqV-2">
          <mxGeometry relative="1" as="geometry" />
        </mxCell>
        <mxCell id="1W1-7F1AiF6YoNYNXee2-4" style="edgeStyle=orthogonalEdgeStyle;rounded=0;orthogonalLoop=1;jettySize=auto;html=1;entryX=0;entryY=0.5;entryDx=0;entryDy=0;" edge="1" parent="1" source="N58Ag7LRtHY7RUleNqqV-1" target="N58Ag7LRtHY7RUleNqqV-5">
          <mxGeometry relative="1" as="geometry" />
        </mxCell>
        <mxCell id="N58Ag7LRtHY7RUleNqqV-1" value="Spiel&lt;div&gt;id, datum, ort&lt;/div&gt;" style="rounded=0;whiteSpace=wrap;html=1;" parent="1" vertex="1">
          <mxGeometry x="180" y="30" width="120" height="60" as="geometry" />
        </mxCell>
        <mxCell id="1W1-7F1AiF6YoNYNXee2-2" value="" style="edgeStyle=orthogonalEdgeStyle;rounded=0;orthogonalLoop=1;jettySize=auto;html=1;" edge="1" parent="1" source="N58Ag7LRtHY7RUleNqqV-2" target="N58Ag7LRtHY7RUleNqqV-3">
          <mxGeometry relative="1" as="geometry" />
        </mxCell>
        <mxCell id="N58Ag7LRtHY7RUleNqqV-2" value="Spiel_Team&lt;div&gt;spiel_id, Team_id&lt;/div&gt;" style="rounded=0;whiteSpace=wrap;html=1;" parent="1" vertex="1">
          <mxGeometry x="40" y="160" width="120" height="60" as="geometry" />
        </mxCell>
        <mxCell id="1W1-7F1AiF6YoNYNXee2-3" value="" style="edgeStyle=orthogonalEdgeStyle;rounded=0;orthogonalLoop=1;jettySize=auto;html=1;" edge="1" parent="1" source="N58Ag7LRtHY7RUleNqqV-3" target="N58Ag7LRtHY7RUleNqqV-4">
          <mxGeometry relative="1" as="geometry" />
        </mxCell>
        <mxCell id="N58Ag7LRtHY7RUleNqqV-3" value="Team&lt;div&gt;id, name, stadt, trainer_id&lt;/div&gt;" style="rounded=0;whiteSpace=wrap;html=1;" parent="1" vertex="1">
          <mxGeometry x="60" y="320" width="120" height="60" as="geometry" />
        </mxCell>
        <mxCell id="N58Ag7LRtHY7RUleNqqV-4" value="trainer&lt;div&gt;id, name, erfahrung, team_id&lt;/div&gt;" style="rounded=0;whiteSpace=wrap;html=1;" parent="1" vertex="1">
          <mxGeometry x="140" y="480" width="120" height="60" as="geometry" />
        </mxCell>
        <mxCell id="1W1-7F1AiF6YoNYNXee2-5" style="edgeStyle=orthogonalEdgeStyle;rounded=0;orthogonalLoop=1;jettySize=auto;html=1;" edge="1" parent="1" source="N58Ag7LRtHY7RUleNqqV-5" target="N58Ag7LRtHY7RUleNqqV-6">
          <mxGeometry relative="1" as="geometry" />
        </mxCell>
        <mxCell id="N58Ag7LRtHY7RUleNqqV-5" value="Spiel_Spieler&lt;div&gt;spiel_id, spieler_id&lt;/div&gt;" style="rounded=0;whiteSpace=wrap;html=1;" parent="1" vertex="1">
          <mxGeometry x="340" y="130" width="120" height="60" as="geometry" />
        </mxCell>
        <mxCell id="1W1-7F1AiF6YoNYNXee2-6" style="edgeStyle=orthogonalEdgeStyle;rounded=0;orthogonalLoop=1;jettySize=auto;html=1;entryX=1;entryY=0.5;entryDx=0;entryDy=0;" edge="1" parent="1" source="N58Ag7LRtHY7RUleNqqV-6" target="N58Ag7LRtHY7RUleNqqV-3">
          <mxGeometry relative="1" as="geometry" />
        </mxCell>
        <mxCell id="N58Ag7LRtHY7RUleNqqV-6" value="Spieler&lt;div&gt;id, name, position, geburtstagsdatum, team_id&lt;/div&gt;" style="rounded=0;whiteSpace=wrap;html=1;" parent="1" vertex="1">
          <mxGeometry x="340" y="310" width="120" height="60" as="geometry" />
        </mxCell>
        <mxCell id="1W1-7F1AiF6YoNYNXee2-7" value="N:M" style="text;html=1;align=center;verticalAlign=middle;resizable=0;points=[];autosize=1;strokeColor=none;fillColor=none;" vertex="1" parent="1">
          <mxGeometry x="105" y="78" width="50" height="30" as="geometry" />
        </mxCell>
        <mxCell id="1W1-7F1AiF6YoNYNXee2-8" value="N:M" style="text;html=1;align=center;verticalAlign=middle;resizable=0;points=[];autosize=1;strokeColor=none;fillColor=none;" vertex="1" parent="1">
          <mxGeometry x="330" y="90" width="50" height="30" as="geometry" />
        </mxCell>
        <mxCell id="1W1-7F1AiF6YoNYNXee2-9" value="N:M" style="text;html=1;align=center;verticalAlign=middle;resizable=0;points=[];autosize=1;strokeColor=none;fillColor=none;" vertex="1" parent="1">
          <mxGeometry x="410" y="240" width="50" height="30" as="geometry" />
        </mxCell>
        <mxCell id="1W1-7F1AiF6YoNYNXee2-10" value="N:1" style="text;html=1;align=center;verticalAlign=middle;resizable=0;points=[];autosize=1;strokeColor=none;fillColor=none;" vertex="1" parent="1">
          <mxGeometry x="265" y="360" width="40" height="30" as="geometry" />
        </mxCell>
        <mxCell id="1W1-7F1AiF6YoNYNXee2-11" value="1:N" style="text;html=1;align=center;verticalAlign=middle;resizable=0;points=[];autosize=1;strokeColor=none;fillColor=none;" vertex="1" parent="1">
          <mxGeometry x="215" y="430" width="40" height="30" as="geometry" />
        </mxCell>
        <mxCell id="1W1-7F1AiF6YoNYNXee2-12" value="N:M" style="text;html=1;align=center;verticalAlign=middle;resizable=0;points=[];autosize=1;strokeColor=none;fillColor=none;" vertex="1" parent="1">
          <mxGeometry x="130" y="250" width="50" height="30" as="geometry" />
        </mxCell>
        <mxCell id="1W1-7F1AiF6YoNYNXee2-53" value="&lt;h3 data-start=&quot;488&quot; data-end=&quot;506&quot;&gt;&lt;strong data-start=&quot;492&quot; data-end=&quot;506&quot;&gt;1. Spieler&lt;/strong&gt;&lt;/h3&gt;&#xa;&lt;div class=&quot;overflow-x-auto contain-inline-size&quot;&gt;&lt;table data-start=&quot;507&quot; data-end=&quot;910&quot;&gt;&lt;thead data-start=&quot;507&quot; data-end=&quot;563&quot;&gt;&lt;tr data-start=&quot;507&quot; data-end=&quot;563&quot;&gt;&lt;th data-start=&quot;507&quot; data-end=&quot;525&quot;&gt;Attribut&lt;/th&gt;&lt;th data-start=&quot;525&quot; data-end=&quot;539&quot;&gt;Datentyp&lt;/th&gt;&lt;th data-start=&quot;539&quot; data-end=&quot;563&quot;&gt;Besonderheit&lt;/th&gt;&lt;/tr&gt;&lt;/thead&gt;&lt;tbody data-start=&quot;623&quot; data-end=&quot;910&quot;&gt;&lt;tr data-start=&quot;623&quot; data-end=&quot;680&quot;&gt;&lt;td&gt;Spieler_ID&lt;/td&gt;&lt;td&gt;&lt;code data-start=&quot;644&quot; data-end=&quot;649&quot;&gt;int&lt;/code&gt;&lt;/td&gt;&lt;td&gt;&lt;strong data-start=&quot;658&quot; data-end=&quot;664&quot;&gt;PK&lt;/strong&gt;&lt;/td&gt;&lt;/tr&gt;&lt;tr data-start=&quot;681&quot; data-end=&quot;737&quot;&gt;&lt;td&gt;Name&lt;/td&gt;&lt;td&gt;&lt;code data-start=&quot;702&quot; data-end=&quot;710&quot;&gt;string&lt;/code&gt;&lt;/td&gt;&lt;td&gt;&lt;/td&gt;&lt;/tr&gt;&lt;tr data-start=&quot;738&quot; data-end=&quot;795&quot;&gt;&lt;td&gt;Position&lt;/td&gt;&lt;td&gt;&lt;code data-start=&quot;759&quot; data-end=&quot;765&quot;&gt;char&lt;/code&gt;&lt;/td&gt;&lt;td&gt;(z. B. &#39;P&#39;, &#39;C&#39;)&lt;/td&gt;&lt;/tr&gt;&lt;tr data-start=&quot;796&quot; data-end=&quot;852&quot;&gt;&lt;td&gt;Geburtsdatum&lt;/td&gt;&lt;td&gt;&lt;code data-start=&quot;817&quot; data-end=&quot;823&quot;&gt;date&lt;/code&gt;&lt;/td&gt;&lt;td&gt;&lt;/td&gt;&lt;/tr&gt;&lt;tr data-start=&quot;853&quot; data-end=&quot;910&quot;&gt;&lt;td&gt;Team_ID&lt;/td&gt;&lt;td&gt;&lt;code data-start=&quot;874&quot; data-end=&quot;879&quot;&gt;int&lt;/code&gt;&lt;/td&gt;&lt;td&gt;&lt;strong data-start=&quot;888&quot; data-end=&quot;904&quot;&gt;FK → Team.ID&lt;/strong&gt;&lt;/td&gt;&lt;/tr&gt;&lt;/tbody&gt;&lt;/table&gt;&lt;/div&gt;&#xa;&lt;hr data-start=&quot;912&quot; data-end=&quot;915&quot;&gt;&#xa;&lt;h3 data-start=&quot;917&quot; data-end=&quot;932&quot;&gt;&lt;strong data-start=&quot;921&quot; data-end=&quot;932&quot;&gt;2. Team&lt;/strong&gt;&lt;/h3&gt;&#xa;&lt;div class=&quot;overflow-x-auto contain-inline-size&quot;&gt;&lt;table data-start=&quot;933&quot; data-end=&quot;1278&quot;&gt;&lt;thead data-start=&quot;933&quot; data-end=&quot;989&quot;&gt;&lt;tr data-start=&quot;933&quot; data-end=&quot;989&quot;&gt;&lt;th data-start=&quot;933&quot; data-end=&quot;951&quot;&gt;Attribut&lt;/th&gt;&lt;th data-start=&quot;951&quot; data-end=&quot;965&quot;&gt;Datentyp&lt;/th&gt;&lt;th data-start=&quot;965&quot; data-end=&quot;989&quot;&gt;Besonderheit&lt;/th&gt;&lt;/tr&gt;&lt;/thead&gt;&lt;tbody data-start=&quot;1049&quot; data-end=&quot;1278&quot;&gt;&lt;tr data-start=&quot;1049&quot; data-end=&quot;1106&quot;&gt;&lt;td&gt;Team_ID&lt;/td&gt;&lt;td&gt;&lt;code data-start=&quot;1070&quot; data-end=&quot;1075&quot;&gt;int&lt;/code&gt;&lt;/td&gt;&lt;td&gt;&lt;strong data-start=&quot;1084&quot; data-end=&quot;1090&quot;&gt;PK&lt;/strong&gt;&lt;/td&gt;&lt;/tr&gt;&lt;tr data-start=&quot;1107&quot; data-end=&quot;1163&quot;&gt;&lt;td&gt;Name&lt;/td&gt;&lt;td&gt;&lt;code data-start=&quot;1128&quot; data-end=&quot;1136&quot;&gt;string&lt;/code&gt;&lt;/td&gt;&lt;td&gt;&lt;/td&gt;&lt;/tr&gt;&lt;tr data-start=&quot;1164&quot; data-end=&quot;1220&quot;&gt;&lt;td&gt;Stadt&lt;/td&gt;&lt;td&gt;&lt;code data-start=&quot;1185&quot; data-end=&quot;1193&quot;&gt;string&lt;/code&gt;&lt;/td&gt;&lt;td&gt;&lt;/td&gt;&lt;/tr&gt;&lt;tr data-start=&quot;1221&quot; data-end=&quot;1278&quot;&gt;&lt;td&gt;Trainer_ID&lt;/td&gt;&lt;td&gt;&lt;code data-start=&quot;1242&quot; data-end=&quot;1247&quot;&gt;int&lt;/code&gt;&lt;/td&gt;&lt;td&gt;&lt;strong data-start=&quot;1256&quot; data-end=&quot;1275&quot;&gt;FK → Trainer.ID&lt;/strong&gt;&lt;/td&gt;&lt;/tr&gt;&lt;/tbody&gt;&lt;/table&gt;&lt;/div&gt;&#xa;&lt;hr data-start=&quot;1280&quot; data-end=&quot;1283&quot;&gt;&#xa;&lt;h3 data-start=&quot;1285&quot; data-end=&quot;1303&quot;&gt;&lt;strong data-start=&quot;1289&quot; data-end=&quot;1303&quot;&gt;3. Trainer&lt;/strong&gt;&lt;/h3&gt;&#xa;&lt;div class=&quot;overflow-x-auto contain-inline-size&quot;&gt;&lt;table data-start=&quot;1304&quot; data-end=&quot;1592&quot;&gt;&lt;thead data-start=&quot;1304&quot; data-end=&quot;1360&quot;&gt;&lt;tr data-start=&quot;1304&quot; data-end=&quot;1360&quot;&gt;&lt;th data-start=&quot;1304&quot; data-end=&quot;1322&quot;&gt;Attribut&lt;/th&gt;&lt;th data-start=&quot;1322&quot; data-end=&quot;1336&quot;&gt;Datentyp&lt;/th&gt;&lt;th data-start=&quot;1336&quot; data-end=&quot;1360&quot;&gt;Besonderheit&lt;/th&gt;&lt;/tr&gt;&lt;/thead&gt;&lt;tbody data-start=&quot;1420&quot; data-end=&quot;1592&quot;&gt;&lt;tr data-start=&quot;1420&quot; data-end=&quot;1477&quot;&gt;&lt;td&gt;Trainer_ID&lt;/td&gt;&lt;td&gt;&lt;code data-start=&quot;1441&quot; data-end=&quot;1446&quot;&gt;int&lt;/code&gt;&lt;/td&gt;&lt;td&gt;&lt;strong data-start=&quot;1455&quot; data-end=&quot;1461&quot;&gt;PK&lt;/strong&gt;&lt;/td&gt;&lt;/tr&gt;&lt;tr data-start=&quot;1478&quot; data-end=&quot;1534&quot;&gt;&lt;td&gt;Name&lt;/td&gt;&lt;td&gt;&lt;code data-start=&quot;1499&quot; data-end=&quot;1507&quot;&gt;string&lt;/code&gt;&lt;/td&gt;&lt;td&gt;&lt;/td&gt;&lt;/tr&gt;&lt;tr data-start=&quot;1535&quot; data-end=&quot;1592&quot;&gt;&lt;td&gt;Erfahrung&lt;/td&gt;&lt;td&gt;&lt;code data-start=&quot;1556&quot; data-end=&quot;1563&quot;&gt;float&lt;/code&gt;&lt;/td&gt;&lt;td&gt;(in Jahren)&lt;/td&gt;&lt;/tr&gt;&lt;/tbody&gt;&lt;/table&gt;&lt;/div&gt;&#xa;&lt;hr data-start=&quot;1594&quot; data-end=&quot;1597&quot;&gt;&#xa;&lt;h3 data-start=&quot;1599&quot; data-end=&quot;1615&quot;&gt;&lt;strong data-start=&quot;1603&quot; data-end=&quot;1615&quot;&gt;4. Spiel&lt;/strong&gt;&lt;/h3&gt;&#xa;&lt;div class=&quot;overflow-x-auto contain-inline-size&quot;&gt;&lt;table data-start=&quot;1616&quot; data-end=&quot;1903&quot;&gt;&lt;thead data-start=&quot;1616&quot; data-end=&quot;1672&quot;&gt;&lt;tr data-start=&quot;1616&quot; data-end=&quot;1672&quot;&gt;&lt;th data-start=&quot;1616&quot; data-end=&quot;1634&quot;&gt;Attribut&lt;/th&gt;&lt;th data-start=&quot;1634&quot; data-end=&quot;1648&quot;&gt;Datentyp&lt;/th&gt;&lt;th data-start=&quot;1648&quot; data-end=&quot;1672&quot;&gt;Besonderheit&lt;/th&gt;&lt;/tr&gt;&lt;/thead&gt;&lt;tbody data-start=&quot;1732&quot; data-end=&quot;1903&quot;&gt;&lt;tr data-start=&quot;1732&quot; data-end=&quot;1789&quot;&gt;&lt;td&gt;Spiel_ID&lt;/td&gt;&lt;td&gt;&lt;code data-start=&quot;1753&quot; data-end=&quot;1758&quot;&gt;int&lt;/code&gt;&lt;/td&gt;&lt;td&gt;&lt;strong data-start=&quot;1767&quot; data-end=&quot;1773&quot;&gt;PK&lt;/strong&gt;&lt;/td&gt;&lt;/tr&gt;&lt;tr data-start=&quot;1790&quot; data-end=&quot;1846&quot;&gt;&lt;td&gt;Datum&lt;/td&gt;&lt;td&gt;&lt;code data-start=&quot;1811&quot; data-end=&quot;1817&quot;&gt;date&lt;/code&gt;&lt;/td&gt;&lt;td&gt;&lt;/td&gt;&lt;/tr&gt;&lt;tr data-start=&quot;1847&quot; data-end=&quot;1903&quot;&gt;&lt;td&gt;Ort&lt;/td&gt;&lt;td&gt;&lt;code data-start=&quot;1868&quot; data-end=&quot;1876&quot;&gt;string&lt;/code&gt;&lt;/td&gt;&lt;td&gt;&lt;/td&gt;&lt;/tr&gt;&lt;/tbody&gt;&lt;/table&gt;&lt;/div&gt;&#xa;&lt;hr data-start=&quot;1905&quot; data-end=&quot;1908&quot;&gt;&#xa;&lt;h3 data-start=&quot;1910&quot; data-end=&quot;1951&quot;&gt;&lt;strong data-start=&quot;1914&quot; data-end=&quot;1951&quot;&gt;5. Spiel_Team (Beziehungstabelle)&lt;/strong&gt;&lt;/h3&gt;&#xa;&lt;div class=&quot;overflow-x-auto contain-inline-size&quot;&gt;&lt;table data-start=&quot;1952&quot; data-end=&quot;2219&quot;&gt;&lt;thead data-start=&quot;1952&quot; data-end=&quot;2008&quot;&gt;&lt;tr data-start=&quot;1952&quot; data-end=&quot;2008&quot;&gt;&lt;th data-start=&quot;1952&quot; data-end=&quot;1970&quot;&gt;Attribut&lt;/th&gt;&lt;th data-start=&quot;1970&quot; data-end=&quot;1984&quot;&gt;Datentyp&lt;/th&gt;&lt;th data-start=&quot;1984&quot; data-end=&quot;2008&quot;&gt;Besonderheit&lt;/th&gt;&lt;/tr&gt;&lt;/thead&gt;&lt;tbody data-start=&quot;2068&quot; data-end=&quot;2219&quot;&gt;&lt;tr data-start=&quot;2068&quot; data-end=&quot;2126&quot;&gt;&lt;td&gt;Spiel_ID&lt;/td&gt;&lt;td&gt;&lt;code data-start=&quot;2089&quot; data-end=&quot;2094&quot;&gt;int&lt;/code&gt;&lt;/td&gt;&lt;td&gt;&lt;strong data-start=&quot;2103&quot; data-end=&quot;2120&quot;&gt;FK → Spiel.ID&lt;/strong&gt;&lt;/td&gt;&lt;/tr&gt;&lt;tr data-start=&quot;2127&quot; data-end=&quot;2185&quot;&gt;&lt;td&gt;Team_ID&lt;/td&gt;&lt;td&gt;&lt;code data-start=&quot;2148&quot; data-end=&quot;2153&quot;&gt;int&lt;/code&gt;&lt;/td&gt;&lt;td&gt;&lt;strong data-start=&quot;2162&quot; data-end=&quot;2178&quot;&gt;FK → Team.ID&lt;/strong&gt;&lt;/td&gt;&lt;/tr&gt;&lt;tr data-start=&quot;2186&quot; data-end=&quot;2219&quot;&gt;&lt;td&gt;(PK = Spiel_ID + Team_ID)&lt;/td&gt;&lt;td&gt;&lt;/td&gt;&lt;td&gt;&lt;/td&gt;&lt;/tr&gt;&lt;/tbody&gt;&lt;/table&gt;&lt;/div&gt;&#xa;&lt;hr data-start=&quot;2221&quot; data-end=&quot;2224&quot;&gt;&#xa;&lt;h3 data-start=&quot;2226&quot; data-end=&quot;2270&quot;&gt;&lt;strong data-start=&quot;2230&quot; data-end=&quot;2270&quot;&gt;6. Spiel_Spieler (Beziehungstabelle)&lt;/strong&gt;&lt;/h3&gt;&#xa;&lt;div class=&quot;overflow-x-auto contain-inline-size&quot;&gt;&lt;table data-start=&quot;2271&quot; data-end=&quot;2537&quot;&gt;&lt;thead data-start=&quot;2271&quot; data-end=&quot;2327&quot;&gt;&lt;tr data-start=&quot;2271&quot; data-end=&quot;2327&quot;&gt;&lt;th data-start=&quot;2271&quot; data-end=&quot;2289&quot;&gt;Attribut&lt;/th&gt;&lt;th data-start=&quot;2289&quot; data-end=&quot;2303&quot;&gt;Datentyp&lt;/th&gt;&lt;th data-start=&quot;2303&quot; data-end=&quot;2327&quot;&gt;Besonderheit&lt;/th&gt;&lt;/tr&gt;&lt;/thead&gt;&lt;tbody data-start=&quot;2387&quot; data-end=&quot;2537&quot;&gt;&lt;tr data-start=&quot;2387&quot; data-end=&quot;2445&quot;&gt;&lt;td&gt;Spiel_ID&lt;/td&gt;&lt;td&gt;&lt;code data-start=&quot;2408&quot; data-end=&quot;2413&quot;&gt;int&lt;/code&gt;&lt;/td&gt;&lt;td&gt;&lt;strong data-start=&quot;2422&quot; data-end=&quot;2439&quot;&gt;FK → Spiel.ID&lt;/strong&gt;&lt;/td&gt;&lt;/tr&gt;&lt;tr data-start=&quot;2446&quot; data-end=&quot;2504&quot;&gt;&lt;td&gt;Spieler_ID&lt;/td&gt;&lt;td&gt;&lt;code data-start=&quot;2467&quot; data-end=&quot;2472&quot;&gt;int&lt;/code&gt;&lt;/td&gt;&lt;td&gt;&lt;strong data-start=&quot;2481&quot; data-end=&quot;2500&quot;&gt;FK → Spieler.ID&lt;/strong&gt;&lt;/td&gt;&lt;/tr&gt;&lt;tr data-start=&quot;2505&quot; data-end=&quot;2537&quot;&gt;&lt;td&gt;(PK = Spiel_ID + Spieler_ID)&lt;/td&gt;&lt;td&gt;&lt;/td&gt;&lt;td&gt;&lt;/td&gt;&lt;/tr&gt;&lt;/tbody&gt;&lt;/table&gt;&lt;/div&gt;" style="text;whiteSpace=wrap;html=1;" vertex="1" parent="1">
          <mxGeometry x="180" y="1190" width="340" height="1110" as="geometry" />
        </mxCell>
      </root>
    </mxGraphModel>
  </diagram>
</mxfile>
